<?xml version="1.0" encoding="utf-8"?>
<!-- Generator: Adobe Illustrator 24.0.1, SVG Export Plug-In . SVG Version: 6.00 Build 0)  -->
<svg version="1.1" id="图层_1" xmlns="http://www.w3.org/2000/svg" xmlns:xlink="http://www.w3.org/1999/xlink" x="0px" y="0px"
	 viewBox="0 0 269.5 53.1" style="enable-background:new 0 0 269.5 53.1;" xml:space="preserve">
<style type="text/css">
	.st0{fill:#0075C5;}
</style>
<g id="Group_925" transform="translate(-5443.5 1083.124)">
	<g id="Group_924" transform="translate(0 0)">
		<g id="Layer_1_1_" transform="translate(44.727 44.902)">
			<path id="Path_1096" class="st0" d="M5443.5-1080.7c0-1.4,1.1-2.5,2.5-2.5s2.5,1.1,2.5,2.5c0,1.4-1.1,2.5-2.5,2.5l0,0
				C5444.6-1078.2,5443.5-1079.3,5443.5-1080.7C5443.5-1080.7,5443.5-1080.7,5443.5-1080.7z M5446-1078.7c1.1,0,2-0.9,2-2
				c0-1.1-0.9-2-2-2s-2,0.9-2,2l0,0c0,1.1,0.8,2,1.8,2C5445.8-1078.6,5445.9-1078.6,5446-1078.7z M5445.4-1079.3h-0.4v-2.8h1.1
				c0.7,0,1,0.3,1,0.8c0,0.4-0.3,0.8-0.7,0.8l0.8,1.2h-0.4l-0.7-1.2h-0.5L5445.4-1079.3z M5446-1080.8c0.4,0,0.7,0,0.7-0.4
				c0-0.4-0.4-0.4-0.6-0.4h-0.6v0.9L5446-1080.8z"/>
		</g>
		<path id="Path_1097" class="st0" d="M5465.7-1071.3l-1.1,1.2c-0.1,0.1-0.2,0.2-0.2,0.4v17.4c0,0.1,0.1,0.3,0.2,0.4l1.1,1.2
			c0.1,0.1,0.3,0.2,0.4,0.2c0.2,0,0.3-0.1,0.4-0.2l1.1-1.2c0.1-0.1,0.2-0.2,0.2-0.4v-17.4c0-0.1-0.1-0.3-0.2-0.4l-1.1-1.2
			c-0.1-0.1-0.3-0.2-0.4-0.2C5466-1071.5,5465.8-1071.4,5465.7-1071.3z"/>
		<path id="Path_1098" class="st0" d="M5461.7-1068c-0.1,0-0.2,0.1-0.3,0.2l-1,1.2c-0.1,0.1-0.1,0.2-0.1,0.3v14.2
			c0,0.1,0,0.2,0.1,0.3l1.1,1.3c0.1,0.1,0.2,0.2,0.3,0.2c0.1,0,0.2-0.1,0.3-0.2l1.1-1.2c0.1-0.1,0.1-0.2,0.1-0.3v-14.4
			c0-0.1,0-0.2-0.1-0.3l-1.1-1.2C5462-1068,5461.9-1068,5461.7-1068z"/>
		<path id="Path_1099" class="st0" d="M5457.7-1064.1c-0.1,0-0.2,0-0.3,0.1l-1.1,1.1c-0.1,0.1-0.1,0.1-0.1,0.2v6.9
			c0,0.1,0,0.2,0.1,0.2l1.1,1.1c0.2,0.1,0.4,0.1,0.5,0l1.1-1.1c0.1-0.1,0.1-0.1,0.1-0.2v-6.9c0-0.1,0-0.2-0.1-0.2l-1.1-1.1
			C5457.9-1064.1,5457.8-1064.1,5457.7-1064.1z"/>
		<path id="Path_1100" class="st0" d="M5475.3-1071.5c-0.2,0-0.3,0.1-0.4,0.2l-1.1,1.2c-0.1,0.1-0.2,0.2-0.2,0.4v17.4
			c0,0.1,0.1,0.3,0.2,0.4l1.1,1.2c0.1,0.1,0.3,0.2,0.4,0.2c0.2,0,0.3-0.1,0.4-0.2l1.1-1.2c0.1-0.1,0.2-0.2,0.2-0.4v-17.4
			c0-0.1-0.1-0.3-0.2-0.4l-1.1-1.2C5475.6-1071.4,5475.5-1071.5,5475.3-1071.5z"/>
		<path id="Path_1101" class="st0" d="M5479.4-1068l-1.1,1.2c-0.1,0.1-0.1,0.2-0.1,0.3v14.2c0,0.1,0,0.2,0.1,0.3l1.1,1.2
			c0.1,0.1,0.2,0.2,0.3,0.2c0.1,0,0.2-0.1,0.3-0.2l1.1-1.3c0.1-0.1,0.1-0.2,0.1-0.3v-14.1c0-0.1,0-0.2-0.1-0.3l-1.1-1.2
			c-0.1-0.1-0.2-0.2-0.3-0.2C5479.5-1068,5479.4-1068,5479.4-1068z"/>
		<path id="Path_1102" class="st0" d="M5483.4-1064l-1.1,1.1c-0.1,0.1-0.1,0.1-0.1,0.2v6.9c0,0.1,0,0.2,0.1,0.2l1,1.1
			c0.2,0.1,0.4,0.1,0.5,0l1.1-1.1c0.1-0.1,0.1-0.1,0.1-0.2v-6.9c0-0.1,0-0.2-0.1-0.2l-1.1-1.1c-0.1-0.1-0.2-0.1-0.3-0.1
			C5483.5-1064.1,5483.4-1064.1,5483.4-1064z"/>
		<path id="Path_1103" class="st0" d="M5476.5-1040.8c4.8,0.1,9.5-1.6,13.1-4.9c4.2-4.3,6.1-9.5,6.1-16.1c0-12.8-8.9-21.3-22.8-21.3
			c-9-0.1-17.6,4-23.2,11.1c-3.9,4.9-6.1,11-6.1,17.3c-0.2,7.6,3.3,14.7,9.3,19.3c4.5,3.4,10.9,5.7,18.6,5.4
			c5.1-0.2,10.1-1.5,12.8-3.5c2.2-1.7,1.2-1.7,0.5-1.6c-0.4,0.1-0.8,0.2-1.1,0.4c-3.8,1.8-7.9,2.8-12.1,2.8
			c-14,0-23.1-8.4-23.1-22.2c0-9.4,3.9-17.3,10.7-22.3c4.2-3,9.3-4.6,14.6-4.6c11.8,0,20.3,7.6,20.2,18.9c-0.1,7-1.3,10.9-5,15.1
			c-3,3.3-7.4,5-11.8,4.6c-3.9-0.4-4.4-2.7-4.4-4.6v-25.4c0-0.2-0.1-0.4-0.2-0.6l-0.9-1.4c-0.2-0.3-0.5-0.4-0.8-0.4
			c-0.3,0-0.6,0.2-0.8,0.4l-0.9,1.4c-0.1,0.2-0.2,0.4-0.2,0.6v25.4l0,0C5468.9-1043.8,5472.2-1041.1,5476.5-1040.8z"/>
	</g>
	<path id="Path_1104" class="st0" d="M5515.8-1068.8c-7.2-1.7-14.8,1.8-14.8,1.8l0.9,5.4c0,0,5.4-2.5,9.7-2.3
		c4.8,0.3,4.1,4.9,4.1,4.9s-13.9,0.4-16,7.6c-2.1,7.3,3,11.2,8.1,10.4c3.6-0.4,4.9-1.1,8.4-4c0.3,2.5,0.4,3.5,0.4,3.5h5.9v-19.7
		C5522.3-1061.1,5523-1067.2,5515.8-1068.8z M5515.6-1048.7c-1.6,1.6-3.7,2.6-6,3c-3.3,0.5-4-2.9-3.6-4.1c0.4-1.1,1.3-4,9.5-5.1
		L5515.6-1048.7L5515.6-1048.7z"/>
	<path id="Path_1105" class="st0" d="M5544.1-1067.3l-0.9,5.9c0,0-9.4-5.4-12.3-0.8c-0.6,1.5,0.8,3.1,5.1,3.9
		c3.9,0.9,10.4,3.3,9.8,9.1c-0.4,4.7-3.5,8.2-10.1,8.2c-3.9,0.1-7.8-0.8-11.4-2.5l0.8-5.8c2.8,2.2,6.2,3.4,9.7,3.4
		c4.9,0,4.6-3.2,4.6-3.2s0.6-2.6-7.5-3.9c-7.7-1.3-7.9-7.5-7.4-9.6S5527.3-1072.6,5544.1-1067.3z"/>
	<path id="Path_1106" class="st0" d="M5562.8-1069.1c-6.2,0-8.6,4.2-8.6,4.2l-0.7-3.6h-5.8v37.5l6.8-1v-10.3c0,0,1.3,1.3,6.3,1.3
		s11.7-3.3,11.7-13.2C5572.5-1064.1,5568.9-1069.1,5562.8-1069.1z M5565.8-1054.7c-0.5,6.6-3.1,8.2-6.7,8.2c-3.6,0-4.8-1.2-4.8-1.2
		v-11.6c1.7-2.2,3.7-3.7,6.1-3.9C5562.9-1063.4,5566.5-1061.3,5565.8-1054.7L5565.8-1054.7z"/>
	<path id="Path_1107" class="st0" d="M5597.9-1049.4c-2.9,2.2-6.4,3.4-10,3.3c-5.7-0.3-6.6-5.6-6.6-7.5h17.3c0,0,1.5-15.4-11-15.4
		s-13,13.7-13,13.7s-1.1,14.6,12.6,14.6c8.3-0.3,11.4-3.3,11.4-3.3L5597.9-1049.4z M5586.9-1064.4c5,0,5.2,6.5,5.2,6.5h-10.8
		C5581.3-1058,5581.9-1064.4,5586.9-1064.4L5586.9-1064.4z"/>
	<path id="Path_1108" class="st0" d="M5601-1068.7v27h6.8v-17.9c0,0,2.7-3.7,6.4-3.7c1.6,0.1,3,1.2,3.2,2.8v18.8h6.8v-20.6
		c0,0,0.3-6.8-7.6-6.8c-5.3,0-9,4.3-9,4.3l-0.6-3.8L5601-1068.7z"/>
	<path id="Path_1109" class="st0" d="M5626.3-1068v3.2h4.2v18.5c0,0,0.5,7.9,10.5,4.8l-0.4-2.9c0,0-6.4,1.8-6.5-2.3
		c-0.1-4,0-18.1,0-18.1h6.9l-0.7-3.1h-6.2l-0.1-9.9l-3.4,0.9v8.9L5626.3-1068z"/>
	<path id="Path_1110" class="st0" d="M5663.6-1048c-2.6,2.4-5.9,3.8-9.5,3.9c-5.7,0-8.4-5.1-8.4-10.4h18.4c0,0,1.4-14.1-10.4-14.1
		c-11.8,0-11.7,13.5-11.7,13.5s-1.1,14.1,11.9,14.3c3.8,0.1,7.5-1.3,10.2-3.9L5663.6-1048z M5653.5-1065.5c7.1,0,7,8.1,7,8.1H5646
		C5646-1057.4,5646.4-1065.5,5653.5-1065.5L5653.5-1065.5z"/>
	<path id="Path_1111" class="st0" d="M5687.3-1062.3c0,0-6.9-5.9-13-1.4c-2.5,2.3-5.5,9-1.6,16c1.6,3,8.2,6.2,14.9,0.4l0.7,3.2
		c0,0-9.7,8-18.5-1.3c-4.6-5.6-3.4-18.8,3.6-21.7c4.7-2,10.1-1.7,14.5,1C5687.8-1064.8,5687.6-1063.6,5687.3-1062.3z"/>
	<path id="Path_1112" class="st0" d="M5692.2-1081.1v39.7h3.6v-19.1c0,0,5.2-5.8,9.9-4.7c2,0.3,3.5,2,3.6,4v19.9h3.7v-20.6
		c0,0-0.5-6.8-7.1-6.8c-3.9-0.1-7.5,1.6-10,4.6v-17.9L5692.2-1081.1z"/>
</g>
</svg>
